<?xml version="1.0" encoding="UTF-8" standalone="no"?>
<!-- Created with Inkscape (http://www.inkscape.org/) -->

<svg
   xmlns:dc="http://purl.org/dc/elements/1.1/"
   xmlns:cc="http://creativecommons.org/ns#"
   xmlns:rdf="http://www.w3.org/1999/02/22-rdf-syntax-ns#"
   xmlns:svg="http://www.w3.org/2000/svg"
   xmlns="http://www.w3.org/2000/svg"
   xmlns:sodipodi="http://sodipodi.sourceforge.net/DTD/sodipodi-0.dtd"
   xmlns:inkscape="http://www.inkscape.org/namespaces/inkscape"
   version="1.1"
   id="svg2"
   width="750"
   height="750"
   viewBox="0 0 750.00001 750"
   sodipodi:docname="logo.svg"
   inkscape:version="0.92.2 (5c3e80d, 2017-08-06)">
  <metadata
     id="metadata8">
    <rdf:RDF>
      <cc:Work
         rdf:about="">
        <dc:format>image/svg+xml</dc:format>
        <dc:type
           rdf:resource="http://purl.org/dc/dcmitype/StillImage" />
        <dc:title></dc:title>
      </cc:Work>
    </rdf:RDF>
  </metadata>
  <defs
     id="defs6" />
  <path
     style="fill:#000000;stroke-width:0.63999999"
     d="m 352.33524,724.70952 -2.0404,-1.82311 0.84897,-3.13689 c 0.46694,-1.72532 0.96476,-3.35156 1.10628,-3.61396 0.40386,-0.74886 0.19499,-38.67481 -0.22456,-40.77254 -0.24411,-1.22054 -1.20912,-2.42822 -2.7609,-3.4551 -4.53728,-3.00263 -4.90659,-7.32218 -0.94544,-11.05799 l 2.19626,-2.07136 v -7.64461 c 0,-5.74035 0.22128,-7.82828 0.88835,-8.38188 0.5867,-0.48691 0.8233,-1.76307 0.69682,-3.75835 -0.10534,-1.66162 -0.38351,-21.88511 -0.61816,-44.94111 -0.4001,-39.31349 -0.64841,-56.24699 -1.23411,-84.16 -1.04348,-49.73021 -1.11002,-62.47183 -0.33113,-63.41034 0.56005,-0.67481 1.38196,-0.83923 2.7229,-0.54471 l 1.92071,0.42186 -0.41728,-20.28576 c -0.2295,-11.15717 -0.57488,-20.54077 -0.7675,-20.85244 -0.57496,-0.9303 -4.24894,0.11888 -7.58232,2.16528 -3.07376,1.88702 -4.71326,1.88118 -5.34666,-0.0191 -0.31466,-0.94395 2.94256,-4.67482 4.08135,-4.67482 0.51655,0 1.80332,-0.936 2.85948,-2.08 2.08369,-2.25699 2.16511,-4.76112 0.22452,-6.90545 -0.53231,-0.58819 -0.79271,-1.52581 -0.57866,-2.0836 0.46929,-1.22295 3.0711,-3.01095 4.3814,-3.01095 0.51961,0 1.17248,-0.36 1.45082,-0.8 0.27834,-0.44 0.41014,-11.58269 0.29289,-24.76154 -0.17741,-19.94099 -0.37392,-24.20686 -1.17117,-25.42362 -0.73045,-1.1148 -0.83998,-2.26404 -0.46113,-4.83846 0.5362,-3.64366 0.50245,-47.19614 -0.037,-47.73557 -0.17945,-0.17947 -0.85473,0.15194 -1.5006,0.73644 -2.3288,2.10754 -5.87353,0.49191 -5.87353,-2.67705 0,-2.09588 3.72798,-4.23996 5.144,-2.95848 2.65609,2.40373 2.6722,2.21424 2.1927,-25.78172 -0.2517,-14.696 -0.58243,-26.936 -0.73494,-27.2 -0.15252,-0.264 -0.84535,-0.48 -1.53962,-0.48 -0.69427,0 -1.4183,-0.504 -1.60895,-1.12 -0.19065,-0.616 -0.5775,-1.56228 -0.85968,-2.10284 -0.28218,-0.54057 -0.36947,-2.70057 -0.19399,-4.8 0.62302,-7.45377 0.0228,-34.87789 -0.81624,-37.29255 -0.15965,-0.45947 -0.45257,-5.78747 -0.65093,-11.84 -0.42178,-12.86954 -0.55151,-13.69127 -2.49523,-15.80461 -1.33802,-1.45479 -1.73495,-2.91517 -2.60926,-9.6 -0.70779,-5.41167 -0.91626,-12.38716 -0.38922,-13.02365 0.3645,-0.44021 0.39722,-1.89461 0.0814,-3.61635 -0.2906,-1.584 -0.28997,-3.168 0.001,-3.52 0.56256,-0.67963 0.6386,-0.99324 0.6386,-2.63368 0,-0.56853 1.04793,-1.99355 2.32873,-3.16672 2.10693,-1.92987 2.29636,-2.3744 1.98884,-4.66715 -0.18752,-1.39809 -0.0386,-2.83539 0.33214,-3.20616 0.46939,-0.46939 0.4312,-0.96224 -0.12664,-1.6344 -0.62731,-0.75586 -0.63535,-1.45726 -0.0375,-3.26884 0.74095,-2.24509 0.41563,-6.324646 -0.61109,-7.663046 -0.90501,-1.17975 -2.00637,-8.530334 -1.55158,-10.3553 0.84368,-3.385364 2.49293,-5.634656 4.28738,-5.847207 1.34287,-0.159059 1.7097,-0.545709 1.7097,-1.802073 0,-2.270631 1.10077,-4.038957 2.95247,-4.74297 1.45943,-0.55488 1.57822,-0.891418 1.40109,-3.969363 -0.17444,-3.030759 -0.33025,-3.34425 -1.57686,-3.172461 -1.4722,0.202874 -2.27212,-0.641683 -2.59462,-2.739372 -0.176,-1.144829 -0.34038,-7.556815 -0.22589,-8.811252 0.0838,-0.918267 2.14796,-0.472806 2.96093,0.638994 1.27253,1.740289 1.88801,0.412466 1.82671,-3.940908 -0.11398,-8.095666 -6.8838,-12.664493 -15.7389,-10.621902 -6.98087,1.610266 -8.65171,3.650008 -14.30857,17.467733 -2.19223,5.354846 -4.60556,11.150886 -5.36295,12.880083 -5.97098,13.632314 -20.65417,20.893558 -34.98293,17.300038 -2.16017,-0.541753 -4.18474,-0.910099 -4.49903,-0.818553 -0.81562,0.237574 -3.42609,-1.273197 -5.87372,-3.399341 -1.27403,-1.107004 -2.83431,-1.826114 -3.96184,-1.826114 -1.02298,0 -2.03795,-0.288 -2.2555,-0.64 -0.21755,-0.352 -0.9073,-0.64 -1.53278,-0.64 -0.62549,0 -2.19739,-1.180934 -3.49312,-2.624294 -1.70888,-1.903572 -2.66048,-2.501895 -3.46499,-2.178605 -0.61001,0.245133 -1.45023,0.585632 -1.86716,0.756672 -1.24266,0.509779 -4.81227,-4.947424 -4.3752,-6.688813 0.24378,-0.971302 -0.10295,-2.159955 -0.99583,-3.413888 -1.2646,-1.775962 -1.45571,-1.846022 -2.48782,-0.911981 -1.61603,1.46249 -2.86197,0.686695 -4.75401,-2.960114 -1.89904,-3.660315 -2.09099,-5.018977 -0.70909,-5.018977 1.50141,0 1.14269,-1.244046 -1.1805,-4.094085 -1.17728,-1.444254 -2.47925,-3.266138 -2.89327,-4.048631 -0.41402,-0.782494 -2.12009,-3.086494 -3.79127,-5.12 -3.4558,-4.205048 -4.95715,-7.131098 -4.09918,-7.989067 0.62836,-0.628363 4.78446,0.298895 13.56422,3.026282 2.992,0.92945 7.6,1.891389 10.24,2.137641 l 4.8,0.447733 7.52,5.978637 c 4.136,3.28825 7.52,6.231279 7.52,6.540063 0,0.308785 0.36,0.562803 0.8,0.564485 0.44,0.0017 1.89603,1.009681 3.23562,2.24 1.33959,1.230318 2.66295,2.236942 2.9408,2.236942 0.83114,0 2.62358,2.267622 2.62358,3.319095 0,1.412914 7.57002,8.200905 9.14571,8.200905 2.25538,0 6.80498,-2.580755 8.52498,-4.835789 0.89974,-1.179616 2.51851,-4.534134 3.59728,-7.454484 1.07878,-2.92035 2.86185,-7.757727 3.96239,-10.749727 2.44214,-6.639332 4.90238,-11.434336 6.70046,-13.059192 0.74205,-0.670556 1.34918,-1.573879 1.34918,-2.007386 0,-0.433507 1.944,-2.375602 4.32,-4.315769 13.29304,-10.854673 33.376,-9.079222 43.13876,3.813718 4.99725,6.59948 10.14124,21.445931 10.14124,29.269357 0,1.893296 0.42266,5.561166 0.93924,8.150818 0.90351,4.529344 1.49829,14.043654 1.59464,25.508452 0.0584,6.945876 0.14792,7.075766 4.35148,6.311746 2.16645,-0.39377 3.75907,-0.38902 4.47803,0.0133 0.80933,0.45292 1.43428,0.33623 2.27528,-0.42487 1.48813,-1.34674 2.33722,-0.22832 2.35153,3.09747 0.0105,2.43545 -1.72633,5.39698 -2.32374,3.96232 -0.37679,-0.90484 -2.14646,-1.10077 -2.14646,-0.23762 0,1.24513 -3.7366,2.1589 -5.83579,1.42712 -1.11937,-0.39022 -2.28695,-0.70948 -2.59462,-0.70948 -0.31678,0 -0.37061,9.46834 -0.12411,21.83053 l 0.4353,21.83052 2.45413,2.32948 2.45413,2.32947 0.10679,7.84244 0.10678,7.84246 1.67701,-0.12779 c 2.11763,-0.16136 3.24038,0.52091 3.24038,1.9691 0,1.25181 -2.53103,3.91379 -3.72125,3.91379 -0.46856,0 -0.75875,1.06333 -0.75875,2.78029 0,2.41991 0.35103,3.12784 2.70823,5.46171 l 2.70823,2.68142 -0.11797,4.9383 c -0.27563,11.53751 -3.07564,25.104 -5.33681,25.85772 -0.43664,0.14555 -0.33401,1.48574 0.30021,3.9207 0.72717,2.79178 0.81516,4.5167 0.35862,7.02972 -0.33275,1.83157 -0.53649,4.82759 -0.45276,6.65779 0.16857,3.68443 -0.77114,5.39061 -2.27951,4.13878 -1.27717,-1.05996 -1.72824,-0.28233 -1.72824,2.97943 0,2.74231 0.0531,2.82451 1.17039,1.81333 1.55593,-1.40809 5.3721,-1.34722 7.17724,0.11449 2.03746,1.64983 2.54909,7.4828 0.83892,9.56439 -1.2765,1.55374 -5.08353,2.14574 -7.74655,1.20459 -1.31933,-0.46627 -1.44,-0.3176 -1.44,1.77421 0,2.10206 0.14988,2.28313 1.88989,2.28313 3.20297,0 5.15011,1.24868 5.15011,3.30273 0,1.68515 -0.18113,1.81727 -2.49153,1.81727 -1.62429,0 -2.61975,-0.33415 -2.85991,-0.96 -0.73264,-1.90923 -1.76582,-0.9599 -1.5672,1.44 l 0.19864,2.4 h 3.33376 c 3.95219,0 4.94111,0.7918 5.99503,4.8 1.0282,3.91043 -0.40316,7.68 -2.91622,7.68 -1.83073,0 -2.82653,1.60204 -1.69755,2.73102 0.39874,0.39874 0.72498,1.53138 0.72498,2.51698 0,1.664 -0.18285,1.792 -2.56,1.792 -2.9686,0 -3.11889,0.51425 -1.60692,5.49828 0.52418,1.72795 0.95618,3.78972 0.96,4.58172 0.004,0.98376 0.39077,1.44 1.21845,1.44 0.66634,0 1.3843,0.45025 1.59548,1.00056 0.85852,2.23727 1.79389,0.0666 1.38421,-3.2123 -0.49068,-3.92729 0.3902,-5.14845 3.20434,-4.44215 1.74674,0.43841 1.75531,0.42449 1.33983,-2.17381 -0.44226,-2.76578 0.23285,-3.90468 1.44722,-2.44145 0.78417,0.94487 1.01023,10.42493 0.42995,18.0307 -0.18973,2.48685 -0.47541,11.70285 -0.63486,20.48 -0.43034,23.6908 -1.61711,31.84992 -6.39063,43.93598 l -2.20291,5.57754 1.86792,2.35047 c 1.82024,2.29047 2.24912,4.13971 1.95392,8.42487 -0.0792,1.14972 0.30105,2.72581 0.845,3.5024 1.11405,1.59053 1.3147,6.58722 0.36484,9.08553 -0.43931,1.15546 -1.09604,1.64166 -2.21748,1.64166 -2.12209,0 -2.84349,1.55907 -2.74128,5.92435 0.0732,3.12668 0.26346,3.64651 1.39384,3.8083 2.96598,0.42449 4.70998,8.95722 2.58908,12.66735 -0.50305,0.88 -0.92485,2.27496 -0.93732,3.09992 -0.0143,0.94996 -0.492,1.62264 -1.30268,1.83464 -1.61037,0.42112 -1.6044,0.88042 0.0387,2.96918 1.89582,2.41015 2.26384,5.6776 0.95107,8.44407 -1.73834,3.66327 -0.35214,5.27923 2.69675,3.14371 3.79796,-2.6602 6.27003,2.57166 6.83742,14.47069 0.44782,9.39114 0.1045,11.26397 -2.55184,13.92031 -1.77642,1.77642 -1.83715,2.56319 -1.70526,22.09548 0.0485,7.18699 0.32219,11.07852 0.82137,11.68 0.57269,0.69005 0.5665,1.12141 -0.0264,1.83576 -0.57868,0.69727 -0.65772,3.45557 -0.31205,10.89093 l 0.4629,9.95718 2.15369,1.02198 c 2.61199,1.23948 2.61276,1.24588 0.29376,2.44508 -3.02096,1.5622 -3.21779,5.90713 -2.39184,52.79728 0.56138,31.87073 0.39335,30.68616 4.35941,30.73344 3.5672,0.0425 3.73102,-0.26024 3.74886,-6.92812 0.009,-3.39434 0.32179,-9.05153 0.69491,-12.57153 0.37311,-3.52 0.78955,-7.984 0.92541,-9.92 0.13586,-1.936 0.53187,-4.672 0.88003,-6.08 0.34815,-1.408 1.25223,-5.584 2.00905,-9.28 0.75683,-3.696 2.37713,-10.176 3.60067,-14.4 5.01953,-17.3287 5.65245,-20.62038 4.40523,-22.91055 -4.98087,-9.14601 -4.91221,-8.86096 -2.76863,-11.49506 3.0629,-3.7638 12.32784,-2.26367 24.82428,4.01941 7.50042,3.77115 21.37282,12.43237 23.81068,14.8662 0.61702,0.616 1.35518,1.12 1.64036,1.12 0.28518,0 1.36518,0.79855 2.4,1.77454 1.03482,0.976 3.0335,2.62291 4.4415,3.65981 4.3854,3.22955 15.03319,13.87462 18.57876,18.57401 7.18263,9.52008 4.49613,14.56221 -6.66229,12.504 -5.07957,-0.93694 -6.74283,-0.38643 -12.39507,4.1026 -9.18478,7.29458 -19.16099,22.92446 -25.95562,40.66504 -4.15048,10.8368 -7.02129,29.15219 -7.02209,44.8 -3.9e-4,7.79136 -1.22646,14.41619 -3.43315,18.55053 -0.6548,1.22675 -1.19054,2.55782 -1.19054,2.95789 0,0.40006 -1.40213,2.8752 -3.11585,5.50035 -2.96392,4.54029 -3.39303,4.91097 -8.8,7.60211 l -5.68418,2.82913 -9.28,-0.055 c -8.52248,-0.0506 -9.6457,-0.19802 -13.76,-1.80634 -10.19205,-3.98419 -18.31942,-10.92934 -22.56285,-19.28083 -1.87456,-3.68928 -4.62687,-12.78227 -4.70095,-15.53081 -0.0351,-1.30183 -0.25699,-3.05703 -0.49313,-3.90042 -0.41442,-1.48006 -0.4904,-1.44109 -2.18603,1.12115 l -1.75668,2.65453 -0.067,22.4736 c -0.0369,12.36051 0.1851,22.656 0.49323,22.87891 0.30814,0.22291 0.93393,1.47578 1.39065,2.78419 0.93628,2.68224 0.41952,4.25236 -1.94457,5.90823 -1.97426,1.38285 -2.7354,1.25824 -5.07286,-0.83027 z m 48.20917,-81.1168 c 0.23593,-3.55296 0.48605,-6.86496 0.55583,-7.36001 0.0698,-0.49505 0.0927,-3.74519 0.051,-7.22254 l -0.0758,-6.32245 -3.344,0.44359 c -1.8392,0.24399 -3.72427,0.7592 -4.18904,1.14493 -1.42333,1.18125 -0.12546,19.58592 1.71902,24.37696 0.5913,1.53593 0.99901,1.77107 2.77361,1.6 l 2.08042,-0.20058 z m -160.10896,32.72076 c -12.72857,-3.64473 -20.18276,-12.9424 -22.95689,-28.6343 -0.39151,-2.21459 -0.80536,-7.82117 -0.91966,-12.45902 -0.12653,-5.13387 -0.49698,-8.78088 -0.94701,-9.32314 -0.55533,-0.66912 -0.64672,-24.67935 -0.36743,-96.52754 l 0.37176,-95.63686 -4.91311,0.0298 c -5.44907,0.033 -6.22386,-0.34706 -3.86217,-1.8945 1.10368,-0.72317 1.59451,-1.6267 1.59451,-2.93526 0,-2.50676 2.69862,-4.46101 4.5573,-3.30025 1.00431,0.6272 1.28815,0.58931 1.53722,-0.20525 0.16801,-0.53598 0.43881,-1.40226 0.60177,-1.92508 0.23926,-0.76757 0.35512,-30.5207 0.15331,-39.36942 -0.0281,-1.232 0.0312,-7.424 0.13174,-13.76 0.10056,-6.336 0.15489,-20.376 0.12074,-31.2 -0.06,-19.03254 -0.10295,-19.68 -1.30431,-19.68 -0.68323,0 -1.42023,0.288 -1.63777,0.64 -0.74261,1.20156 -4.07246,0.71943 -4.83191,-0.69961 -1.64419,-3.0722 1.48824,-6.89758 3.87752,-4.7353 0.64854,0.58691 1.70457,0.9637 2.34677,0.83731 1.03876,-0.20444 1.1711,-0.96989 1.19918,-6.9361 0.0173,-3.68846 0.25966,-7.376 0.53844,-8.19453 0.67049,-1.96863 -0.0276,-2.57555 -1.17913,-1.02505 -0.73273,0.98664 -1.14739,1.09133 -2.07339,0.52353 -1.76704,-1.08352 -1.72682,-11.32308 0.0458,-11.66446 1.5679,-0.30195 2.29477,0.92505 2.30689,3.89421 0.009,2.15396 0.17998,2.4 1.66986,2.4 1.63225,0 1.6524,-0.0557 1.20308,-3.32264 -0.25134,-1.82745 -0.85437,-3.72002 -1.34006,-4.20571 -1.14132,-1.14131 -1.13642,-2.71165 0.008,-2.71165 1.37576,0 1.74888,-1.76804 1.27136,-6.02438 -0.31149,-2.77643 -0.79162,-4.1462 -1.67123,-4.76782 -0.80881,-0.57158 -1.11982,-1.34362 -0.90237,-2.24 0.51411,-2.11928 -0.45468,-8.27165 -1.34929,-8.56877 -0.55497,-0.18432 -0.80935,0.58373 -0.83055,2.50764 l -0.0305,2.77333 -0.87173,-2.56 c -0.47945,-1.408 -0.98925,-6.16 -1.13288,-10.56 -0.23434,-7.17881 -0.44119,-8.3503 -2.01515,-11.4126 -1.6677,-3.24467 -2.08031,-6.96983 -0.74274,-6.70567 0.33901,0.0669 0.92165,1.20972 1.29474,2.53948 0.5819,2.07396 1.02248,2.49913 3.09845,2.99009 2.64306,0.62506 3.96172,0.0632 2.18508,-0.9311 -0.61307,-0.34309 -1.11467,-1.12789 -1.11467,-1.744 0,-0.61611 -0.3205,-1.44071 -0.71224,-1.83244 -0.4137,-0.4137 -0.48831,-1.07092 -0.17799,-1.568 0.29383,-0.47067 0.59256,-1.24102 0.66384,-1.71189 0.0713,-0.47088 0.56227,-1.33488 1.09108,-1.92 0.94679,-1.04765 1.39595,-3.85079 1.17032,-7.30387 -0.097,-1.48522 -0.40229,-1.76 -1.95501,-1.76 -1.53244,0 -1.90418,-0.32093 -2.224,-1.92 -0.22844,-1.14221 -0.7858,-1.92 -1.37584,-1.92 -1.10922,0 -2.47057,-2.95645 -1.96637,-4.27037 0.17932,-0.46729 0.99107,-0.84963 1.80389,-0.84963 0.81282,0 1.97104,-0.576 2.57382,-1.28 0.60279,-0.704 1.50791,-1.28 2.01139,-1.28 1.34065,0 1.66027,-2.49395 1.57658,-12.30154 -0.0682,-7.99354 -0.18282,-8.81579 -1.2772,-9.16313 -0.66122,-0.20991 -1.20223,-0.92391 -1.20223,-1.5867 0,-0.66278 -0.4502,-1.45701 -1.00045,-1.76494 -0.90725,-0.50772 -0.90725,-0.63721 0,-1.39017 0.55025,-0.45666 1.00045,-1.25784 1.00045,-1.7804 0,-0.61178 0.36816,-0.80883 1.0339,-0.55336 0.88183,0.33839 0.98361,-0.004 0.69195,-2.33152 -0.18809,-1.50056 -0.14934,-5.03228 0.0861,-7.84828 0.39043,-4.66993 0.55464,-5.13798 1.86805,-5.32451 1.38342,-0.19648 1.44,-0.45535 1.44,-6.58806 0,-4.73557 -0.20652,-6.35672 -0.8,-6.27965 -3.06558,0.39808 -3.44492,-2.55816 -0.54785,-4.26951 4.53075,-2.67638 2.86596,-15.41735 -2.68971,-20.58491 -1.41522,-1.31635 -3.46173,-3.23549 -4.54778,-4.26476 -3.38975,-3.21251 -6.74844,-5.37497 -7.90444,-5.0892 -0.71222,0.17608 -2.65935,-1.17441 -5.43152,-3.76718 -2.88165,-2.69515 -4.61001,-3.88007 -5.18788,-3.55668 -0.55169,0.30874 -1.80909,-0.32181 -3.46043,-1.73529 -1.42662,-1.22114 -3.01681,-2.22025 -3.53376,-2.22025 -0.51694,0 -1.30382,-0.4385 -1.74862,-0.97445 -0.4448,-0.53595 -1.29134,-0.82127 -1.88122,-0.63406 -0.64273,0.204 -1.67705,-0.30313 -2.5812,-1.26554 -0.82979,-0.88327 -1.8905,-1.60595 -2.35715,-1.60595 -1.51403,0 -0.89772,-1.10429 1.07157,-1.92 2.46677,-1.02177 2.44376,-1.13945 -0.85587,-4.377796 -2.31981,-2.27672 -2.89993,-2.57481 -3.53104,-1.81437 -0.41535,0.50047 -0.5754,1.37844 -0.35566,1.95105 0.64364,1.677316 -0.94465,1.212366 -3.0498,-0.89278 -1.20249,-1.20249 -1.78797,-2.31422 -1.54804,-2.93946 1.31568,-3.42861 1.22537,-3.59181 -6.33405,-11.446638 -6.91207,-7.182189 -9.80535,-10.893523 -9.06755,-11.631328 0.17181,-0.171808 0.84104,-0.03802 1.48719,0.29728 0.64615,0.335315 5.98521,2.258528 11.86457,4.273818 10.43188,3.575756 10.73898,3.639603 12.72972,2.646489 l 2.03995,-1.017664 8.07029,6.513786 c 13.00325,10.495337 16.07029,13.330127 16.07029,14.853397 0,0.883786 1.37982,2.594046 3.84,4.759576 2.112,1.85906 3.84,3.89121 3.84,4.51588 0,1.20996 2.42939,3.94305 8.64807,9.72917 3.701,3.44356 7.35193,7.71332 7.35193,8.59809 0,0.23315 0.54419,1.18837 1.20933,2.1227 2.54302,3.5723 5.19067,18.97191 5.19067,30.19068 0,7.16374 0.0817,7.66812 1.24223,7.66812 0.68322,0 1.47522,0.36 1.76,0.8 0.28477,0.44 0.51777,9.34348 0.51777,19.7855 0,10.44202 0.17725,19.16327 0.3939,19.38057 0.21665,0.21729 1.67823,0.0516 3.24796,-0.36827 2.4377,-0.65199 3.17253,-0.60446 5.0373,0.32581 1.35839,0.67765 2.26718,0.83738 2.40538,0.42277 0.12217,-0.36651 0.63013,-0.66638 1.12879,-0.66638 0.65989,0 0.90667,0.8607 0.90667,3.16223 0,3.37718 -0.80591,4.61127 -1.82369,2.79259 -0.54304,-0.97035 -0.82409,-1.00414 -2.20496,-0.26512 -0.97451,0.52154 -3.02513,0.75924 -5.33697,0.61864 l -3.75438,-0.22834 0.11254,17.53828 0.11254,17.53829 1.64746,1.52762 c 1.90499,1.76641 2.12598,4.15993 0.65611,7.10636 -0.66282,1.32866 -0.92793,3.32307 -0.8,6.01833 0.17205,3.62466 0.33655,4.05174 1.63135,4.23563 0.96856,0.13756 1.44,-0.12435 1.44,-0.8 0,-1.02976 0.63708,-1.25443 2.88,-1.01563 1.84718,0.19667 1.94488,0.48924 0.64355,1.9272 -0.76932,0.85008 -1.97229,1.28392 -3.56013,1.28392 -2.11452,0 -2.48131,0.23841 -3.10081,2.0155 -0.97604,2.79986 -0.91476,3.05552 0.89739,3.7445 1.76335,0.67043 1.94886,1.3523 0.90071,3.31078 -0.50572,0.94495 -0.50572,1.50021 0,2.00593 0.38461,0.38461 0.69929,1.32643 0.69929,2.09293 0,0.76649 0.458,1.77374 1.01779,2.23832 0.84106,0.69802 0.86884,0.9639 0.16,1.53115 -1.88918,1.51183 -2.45779,3.66159 -2.45779,9.29221 0,3.41912 0.26067,5.76868 0.64,5.76868 0.352,0 0.64,-0.38737 0.64,-0.86081 0,-0.47344 0.56151,-1.36896 1.2478,-1.99004 0.81758,-0.73991 1.31406,-2.15121 1.44,-4.09344 0.13683,-2.11037 0.48795,-3.02029 1.21894,-3.15892 0.89154,-0.16908 1.01235,0.63072 0.91752,6.07424 -0.14802,8.49643 -1.50445,11.25416 -4.29387,8.72978 -1.09738,-0.99312 -1.17039,-0.97805 -1.17039,0.24163 0,0.71546 0.432,1.65936 0.96,2.09756 0.528,0.4382 0.96,1.07604 0.96,1.41742 0,0.34138 0.576,1.35295 1.28,2.24794 2.47974,3.15248 1.11695,12.66951 -1.50287,10.49525 -0.49658,-0.41212 -1.13448,-1.67886 -1.41756,-2.81497 l -0.51468,-2.06564 -0.24491,2.46419 c -0.13997,1.40839 0.18462,3.36933 0.75756,4.57673 0.55135,1.16189 1.00246,2.405 1.00246,2.76247 0,0.35747 0.36,0.79601 0.8,0.97456 0.6286,0.25505 0.6196,0.45154 -0.042,0.91706 -1.04242,0.73348 -2.67798,3.8141 -2.67798,5.04406 0,0.50202 0.61641,1.7465 1.36981,2.76553 1.37795,1.86378 1.40543,3.16836 0.17788,8.44533 -0.33739,1.45036 -0.0964,1.86576 1.58727,2.73644 1.09177,0.56457 1.98504,1.4511 1.98504,1.97007 0,1.10701 -1.98808,1.25948 -3.01624,0.23132 -0.39172,-0.39172 -1.02532,-0.51873 -1.408,-0.28222 -1.24194,0.76755 -0.73615,2.69059 0.90424,3.43801 1.82459,0.83134 1.8256,0.83702 1.63353,9.21969 -0.21044,9.18399 0.74084,12.38841 2.38477,8.03315 l 0.77893,-2.06361 1.37728,1.37728 c 2.21093,2.21093 1.91758,7.2753 -0.7387,12.75278 -1.69582,3.4969 -2.2325,5.57644 -2.62131,10.15716 -0.80029,9.42859 -1.87259,19.7727 -2.15617,20.8 -0.14576,0.528 -0.44201,2.544 -0.65833,4.48 -0.21633,1.936 -0.54462,4.03782 -0.72954,4.67071 -0.18492,0.63289 0.008,1.56578 0.42928,2.07307 0.49674,0.59855 0.6745,2.53254 0.50633,5.50885 -0.218,3.85796 -0.48368,4.73557 -1.67262,5.525 -1.19119,0.79091 -1.41345,1.53006 -1.41345,4.70043 0,2.85159 0.22352,3.76194 0.92371,3.76194 1.67193,0 2.76809,2.44093 2.52705,5.62724 -0.30998,4.09746 -0.71046,5.86436 -1.56169,6.89002 -1.1229,1.35306 -0.12349,2.20274 2.59096,2.20274 1.36645,0 2.6481,0.26478 2.84811,0.5884 0.74614,1.20728 -1.67031,2.6116 -4.49383,2.6116 -3.1555,0 -3.79171,1.12817 -1.49587,2.65255 2.47647,1.64431 2.24537,11.184 -0.3111,12.84218 -1.22679,0.79572 1.66448,2.44046 3.59707,2.04624 0.95942,-0.1957 2.10419,-0.13344 2.54395,0.13835 0.43976,0.27178 1.50167,0.50912 2.35981,0.52741 2.51605,0.0536 3.83528,5.6108 2.39248,10.07816 -0.95105,2.94476 -0.9594,3.42375 -0.083,4.76138 1.36174,2.07827 1.37032,3.53533 0.0617,10.47373 -0.63069,3.344 -1.27001,6.73779 -1.42071,7.54177 -0.1507,0.80396 -0.98348,1.78502 -1.85062,2.18012 l -1.57663,0.71836 0.26391,11.25987 c 0.31493,13.4374 0.23053,12.37831 0.95095,11.93307 0.32246,-0.19929 1.35141,-0.0715 2.28657,0.2841 2.31256,0.87923 1.85277,2.57913 -0.95287,3.52288 l -2.24,0.75349 -0.17717,31.46317 -0.17718,31.46317 h 2.82779 c 3.14068,0 3.15487,-0.022 3.91761,-6.08 0.50009,-3.97187 3.99173,-17.88463 5.13979,-20.48 0.46712,-1.056 1.46999,-3.49901 2.2286,-5.42893 0.75861,-1.92991 2.03693,-4.95391 2.84071,-6.72 0.80378,-1.76608 2.54692,-5.94707 3.87366,-9.29107 1.32673,-3.344 2.95088,-7.14852 3.60922,-8.4545 1.82277,-3.61592 1.54943,-6.02355 -1.04303,-9.18729 -2.44021,-2.97797 -2.60903,-3.49318 -1.50595,-4.59625 1.09162,-1.09162 6.25463,2.54095 18.77291,13.20816 20.5443,17.5064 34.89307,31.2608 34.89307,33.44765 0,1.68583 -1.74108,1.47063 -4.37876,-0.54123 -4.77414,-3.64142 -10.62753,-1.21159 -20.20797,8.38863 -12.85212,12.87866 -20.48094,27.46771 -22.45122,42.93483 -0.2242,1.76 -0.68613,4.66058 -1.0265,6.44572 -0.3605,1.89073 -0.38678,3.87306 -0.063,4.74846 0.56537,1.52832 0.36124,2.98336 -1.41252,10.06828 -1.53491,6.13088 -3.49071,9.67584 -7.71054,13.97556 -7.13747,7.27257 -16.20077,10.08787 -24.66953,7.66284 z m 10.07652,-45.30086 c 0.34829,-0.44 0.79385,-5.192 0.99015,-10.56 0.31663,-8.6587 0.24165,-9.76 -0.66449,-9.76 -0.56176,0 -1.54807,0.47663 -2.19179,1.05919 -1.81227,1.64009 -1.78358,20.06081 0.0312,20.06081 0.66089,0 1.48659,-0.36 1.83488,-0.8 z m 304.48348,-98.13771 c -8.75178,-1.23084 -12.90788,-2.67002 -15.27762,-5.29035 -1.48219,-1.63894 -0.98954,-3.10172 1.34122,-3.98226 0.97702,-0.36911 2.57641,-1.43435 3.5542,-2.36719 4.80022,-4.57956 10.13155,-34.10323 11.12854,-61.62724 l 0.41565,-11.47525 h -1.6018 c -2.60834,0 -3.95632,-2.11786 -4.19839,-6.59622 -0.27475,-5.0831 0.69755,-7.0523 3.69508,-7.48378 l 2.22312,-0.32 0.16952,-19.04 c 0.1684,-18.91358 0.16069,-19.04 -1.16207,-19.04 -4.33334,0 -6.51587,-6.22243 -4.16011,-11.86056 0.81375,-1.94757 1.20847,-2.21944 3.22239,-2.21944 h 2.29505 l -0.18239,-6.56 -0.18239,-6.56 -3.66013,-0.39338 c -8.09442,-0.86996 -10.78416,-6.72974 -3.64287,-7.93625 2.67732,-0.45233 3.37407,-1.86765 1.25111,-2.54145 -1.70673,-0.54169 -4.53093,-4.00477 -4.12616,-5.05956 0.53787,-1.40168 3.29239,-2.30936 7.00816,-2.30936 1.91944,0 3.48989,-0.288 3.48989,-0.64 0,-0.352 -0.42187,-0.64 -0.93748,-0.64 -1.69149,0 -2.79046,-4.80539 -1.41382,-6.18204 0.66843,-0.66843 0.50843,-5.21475 -0.19891,-5.65191 -0.34661,-0.21422 -0.64827,-1.02321 -0.67035,-1.79777 -0.0221,-0.77455 -0.29903,-5.87228 -0.61543,-11.32828 -0.71925,-12.40238 -0.68866,-11.40772 -0.4369,-14.20183 0.11704,-1.29901 0.58301,-2.80791 1.03549,-3.35311 0.66548,-0.80185 0.67878,-3.43778 0.0696,-13.79381 -0.41421,-7.04139 -0.61551,-13.02518 -0.44733,-13.2973 0.16819,-0.27213 0.0406,-1.91395 -0.28339,-3.6485 -0.38374,-2.05403 -0.36467,-3.37824 0.0547,-3.79759 0.95538,-0.95539 0.77975,-2.30786 -0.29971,-2.30786 -1.38339,0 -2.95202,3.48247 -3.36321,7.46655 -0.316,3.06173 -0.19352,3.59872 1.01367,4.44427 1.75881,1.23192 1.85218,4.41914 0.16041,5.47567 -1.17817,0.73578 -1.17398,0.78868 0.14711,1.85844 1.89049,1.53083 0.87582,4.66255 -1.60431,4.95161 -2.51492,0.29311 -3.73008,-1.87618 -3.73008,-6.65895 0,-5.50078 -0.55325,-7.76562 -1.98866,-8.14098 -1.66699,-0.43593 -1.58787,-3.3003 0.12428,-4.49953 l 1.33563,-0.93551 -1.33563,-0.42391 c -0.82185,-0.26085 -1.33185,-0.96124 -1.32582,-1.82079 0.015,-2.14066 0.76018,-2.87331 3.15778,-3.10481 2.04103,-0.19706 2.25813,-0.43843 3.069,-3.41206 2.1303,-7.8123 2.62582,-14.26067 1.41575,-18.42378 -0.70696,-2.43223 -0.72993,-3.32094 -0.11143,-4.31132 1.0817,-1.73207 0.98451,-10.21697 -0.14809,-12.92765 -0.80958,-1.9376 -0.80958,-2.60984 0,-5.29987 1.25308,-4.16368 1.17093,-10.65932 -0.18303,-14.47149 -1.04463,-2.94121 -1.04661,-3.3055 -0.0335,-6.16589 0.73677,-2.08031 1.19993,-6.16496 1.46716,-12.93894 0.21478,-5.44441 0.62301,-10.19641 0.90717,-10.56 0.97131,-1.24281 1.44023,-18.18382 0.56994,-20.59059 -0.90596,-2.50539 -0.33478,-3.99028 1.93187,-5.02223 1.32022,-0.60107 1.38756,-1.03645 1.38584,-8.96 -10e-4,-4.58053 -0.32545,-10.92024 -0.72101,-14.08824 -0.72524,-5.80831 -0.55797,-9.96654 1.62843,-40.479994 0.58443,-8.156653 0.57698,-10.4 -0.0345,-10.4 -1.43042,0 -2.79112,-1.98793 -2.79112,-4.077715 0,-2.311085 0.96348,-3.602285 2.688,-3.602285 0.82794,0 1.15446,-0.495091 1.16074,-1.76 0.005,-0.968 0.1824,-2.408 0.39465,-3.2 0.33907,-1.265281 0.14661,-1.44 -1.58623,-1.44 -2.27775,0 -3.48755,-1.657306 -3.17662,-4.35165 0.16102,-1.395255 0.65085,-1.839887 2.54159,-2.307087 l 2.34213,-0.578736 0.43958,-5.181264 c 0.65793,-7.754755 2.02278,-15.00028 3.14959,-16.720007 1.44437,-2.2044 5.15597,-3.171947 8.6051,-2.243195 2.33536,0.628848 2.92594,1.142487 3.93335,3.420944 1.65482,3.742653 3.07194,17.483457 3.80774,36.920995 0.33978,8.976 0.95743,23.483698 1.37255,32.239314 0.57138,12.05169 0.57655,18.04614 0.0213,24.67343 -0.40343,4.81476 -0.73348,20.62626 -0.73348,35.13667 0,25.1479 0.0625,26.55402 1.3351,30.04657 4.19192,11.50418 4.23894,22.32207 0.1049,24.13577 -1.37915,0.60507 -1.44,0.9589 -1.44,8.37333 0,4.25787 0.21043,7.95201 0.46762,8.2092 0.2572,0.2572 0.37535,2.4652 0.26256,4.90667 -0.19132,4.14135 -0.11538,4.43904 1.13237,4.43904 1.46353,0 1.81278,0.9771 0.53745,1.5036 -0.48466,0.20007 -0.23239,0.50279 0.64,0.76797 0.792,0.24074 1.44,0.67857 1.44,0.97296 0,1.49553 -1.61537,3.75226 -2.80769,3.92245 -1.27182,0.18153 -1.36307,0.61989 -1.53301,7.36471 -0.1778,7.05692 -0.15476,7.18867 1.44,8.2336 2.05218,1.34464 2.05896,2.86282 0.0207,4.63506 -1.79148,1.55768 -2.15381,3.95965 -0.59729,3.95965 0.55148,0 1.94666,-0.72 3.1004,-1.6 4.51886,-3.44669 9.73058,-0.6253 6.06077,3.28103 l -1.35613,1.44353 1.35613,1.72403 c 0.74587,0.94822 1.35612,2.28012 1.35612,2.95979 0,0.67968 0.33305,1.85806 0.74009,2.61864 2.08748,3.90048 1.59283,10.89576 -1.36707,19.33298 -2.14025,6.10078 -2.72208,9.28924 -1.88021,10.30362 0.91493,1.10243 0.3108,2.81638 -0.99272,2.81638 -1.36242,0 -1.22358,0.82004 0.29991,1.77148 1.6798,1.04904 1.70574,3.34852 0.0378,3.34852 -1.91033,0 -2.09856,1.01039 -0.3377,1.81269 2.899,1.32088 1.7259,3.94731 -1.76308,3.94731 -1.27989,0 -1.30619,0.21917 -0.90233,7.52 1.1888,21.49048 -0.004,34.12706 -3.2654,34.5999 -1.37232,0.19895 -1.37829,0.27363 -1.25407,15.68 0.12274,15.22286 0.14728,15.48331 1.47713,15.67312 1.8302,0.26123 2.80768,2.67259 2.80768,6.92633 0,3.10835 -0.24274,3.78186 -1.99439,5.5335 l -1.99438,1.99439 0.33012,20.51638 c 0.51287,31.87369 3.75428,59.04176 8.84842,74.16348 1.67067,4.95933 3.19866,7.09027 5.83362,8.13564 3.35191,1.3298 3.72308,1.77896 2.92232,3.53642 -0.90644,1.98944 -4.72051,3.8078 -10.74571,5.12304 -4.63078,1.01086 -26.9672,1.84289 -31.68,1.18009 z m -98.76571,-52.4423 c -5.06358,-1.09921 -8.31814,-2.69569 -9.89286,-4.85281 -1.5444,-2.1156 -0.88325,-3.33426 3.26012,-6.00913 3.78849,-2.44576 4.74718,-4.94176 6.84794,-17.829 1.56532,-9.6025 3.43439,-31.39331 3.27389,-38.16905 -0.0743,-3.13841 -0.24025,-3.54227 -1.53044,-3.72544 -4.05057,-0.57505 -5.46573,-13.9226 -1.5153,-14.29204 0.5733,-0.0536 1.47436,-0.126 2.00236,-0.16084 1.0302,-0.068 1.0494,-0.42681 0.77715,-14.5216 -0.1265,-6.54857 -0.23854,-7.12643 -1.44278,-7.44134 -2.00347,-0.52392 -3.17437,-3.49243 -3.17437,-8.04776 0,-4.06771 1.05339,-6.21098 3.05262,-6.21098 0.39151,0 0.87377,-0.26201 1.07169,-0.58225 0.76894,-1.24417 -0.49074,-2.51778 -3.15339,-3.18824 -2.92837,-0.73737 -6.73092,-3.46445 -6.73092,-4.82721 0,-1.4047 2.26962,-2.9223 4.37039,-2.9223 2.70029,0 2.56832,-1.01117 -0.31259,-2.39496 -4.33784,-2.08361 -4.5032,-4.88232 -0.36988,-6.26011 1.68197,-0.56065 1.86775,-0.82916 1.2891,-1.86314 -0.49207,-0.87929 -0.45315,-1.56505 0.14299,-2.51964 0.68501,-1.09688 0.65747,-1.41347 -0.16825,-1.93432 -0.88805,-0.56018 -0.88857,-0.77349 -0.005,-2.12171 0.89419,-1.36469 0.8807,-1.611 -0.15054,-2.75052 -0.95151,-1.0514 -0.99745,-1.41454 -0.28718,-2.27035 0.9809,-1.18192 0.88171,-6.54809 -0.14388,-7.78385 -0.48676,-0.58651 -0.45924,-1.08944 0.0962,-1.75871 0.56017,-0.67496 0.66602,-2.77978 0.37818,-7.52 -0.8349,-13.74914 -1.2961,-30.72175 -0.88194,-32.45494 0.41927,-1.75448 -1.36346,-1.32984 -2.33929,0.55721 -0.7767,1.50196 -0.85279,2.27336 -0.32209,3.26499 0.8422,1.57368 0.244,3.81005 -1.01916,3.81005 -1.25644,0 -1.16571,0.30556 0.68313,2.30048 1.82879,1.9733 1.99386,2.97592 0.67071,4.07403 -2.02516,1.68073 -6.46128,-2.16979 -4.80248,-4.16853 0.41932,-0.50525 0.6262,-1.97731 0.46618,-3.31717 -0.15822,-1.32484 0.0258,-2.91991 0.40896,-3.54459 0.57627,-0.93955 0.33725,-1.41752 -1.38337,-2.76639 -2.32002,-1.81876 -2.62774,-3.08769 -0.97332,-4.01355 1.04346,-0.58395 1.04026,-0.69273 -0.0561,-1.90419 -0.63952,-0.70667 -1.06259,-1.81028 -0.94014,-2.45247 0.23566,-1.23591 3.08956,-2.05999 3.08956,-0.89213 0,0.37648 0.39888,0.68451 0.8864,0.68451 2.61893,0 4.3219,-8.66932 2.46704,-12.55901 -0.97813,-2.05115 -0.97076,-2.41912 0.11218,-5.60507 0.89944,-2.64612 0.99949,-3.70791 0.4467,-4.74079 -0.98525,-1.84097 -0.89043,-4.67252 0.24768,-7.39642 1.37995,-3.30268 1.20012,-7.57024 -0.46328,-10.99403 -1.41982,-2.9224 -1.42034,-2.9369 -0.21571,-5.93712 0.82308,-2.04993 1.35226,-5.55483 1.66195,-11.00756 0.2499,-4.4 0.65813,-8.73752 0.90717,-9.63892 0.31581,-1.14308 0.14679,-1.89289 -0.55866,-2.47837 -1.1926,-0.98977 -1.32725,-3.31092 -0.25431,-4.38387 0.44129,-0.44128 0.69063,-2.19339 0.59768,-4.19996 -0.11745,-2.53556 0.12521,-3.7275 0.92086,-4.52316 0.96144,-0.96143 1.02818,-2.11582 0.60633,-10.48803 -0.68906,-13.67566 -0.70199,-21.419 -0.0573,-34.28317 l 0.57314,-11.43548 -1.4322,0.76649 c -2.09032,1.1187 -3.88573,-0.67971 -3.88573,-3.8922 0,-2.69343 1.65444,-4.16598 4.32,-3.84508 1.29512,0.15591 1.44,-0.10097 1.44,-2.55313 v -2.72648 l -1.30493,1.40068 c -2.60528,2.79644 -6.16357,0.44918 -5.50173,-3.62927 0.57438,-3.53948 3.12436,-4.96092 5.19142,-2.89386 0.56991,0.5699 1.20696,0.86542 1.41569,0.65669 0.20872,-0.20872 0.61417,-4.059 0.90098,-8.55618 0.73094,-11.460694 1.72973,-14.37336 5.4638,-15.933552 2.89934,-1.211424 6.05987,-0.598028 8.12198,1.576308 1.98501,2.093024 3.34256,8.344098 3.98305,18.340544 0.24808,3.872 0.54515,7.76 0.66015,8.64 0.115,0.88 0.40615,6.784 0.64701,13.12 0.24086,6.336 0.7359,12.096 1.1001,12.8 0.4203,0.81247 0.72857,12.14994 0.84399,31.04 0.21002,34.37517 0.48061,37.50397 3.78991,43.8226 2.97368,5.67782 4.11313,9.39908 4.12066,13.4574 0.0105,5.65073 -3.38935,9.94183 -5.54316,6.99631 -1.22681,-1.67775 -1.32347,-1.10732 -0.71236,4.20369 0.30377,2.64 0.56178,5.736 0.57337,6.88 0.0135,1.33108 0.33888,2.08 0.90377,2.08 1.43314,0 2.12375,1.89711 1.39421,3.82989 -0.36151,0.95775 -0.44863,2.28511 -0.19361,2.94968 0.25502,0.66458 0.51814,3.65905 0.58469,6.65438 0.11561,5.20284 0.0567,5.45518 -1.31899,5.65056 -1.24588,0.17694 -1.44,0.58676 -1.44,3.04 0,2.68955 0.0937,2.83549 1.82081,2.83549 4.62905,0 5.02313,4.90042 0.57919,7.20232 -1.32,0.68374 -2.4,1.64693 -2.4,2.14043 0,1.23443 0.40943,1.13767 2.7627,-0.65292 2.89516,-2.20291 5.2263,-2.65392 7.16197,-1.38563 2.16775,1.42038 2.01116,2.4773 -0.78067,5.26913 -1.45517,1.45518 -2.07004,2.47799 -1.58653,2.63916 1.25028,0.41676 2.68253,3.71502 2.68253,6.17748 0,1.23944 -0.70901,3.85673 -1.57558,5.8162 -2.44211,5.52204 -2.6514,7.5393 -0.86255,8.31383 2.15468,0.93293 2.29151,3.32264 0.24366,4.25571 l -1.64187,0.74808 1.4325,0.71418 c 0.78788,0.3928 1.53084,1.22478 1.65102,1.84885 0.27841,1.44569 -1.11085,3.15174 -2.21995,2.72614 -1.99455,-0.76538 -2.2966,1.79797 -2.19965,18.66704 0.0499,8.67586 0.11476,9.12 1.33242,9.12 0.704,0 1.28,0.31496 1.28,0.69992 0,0.38495 -0.576,0.85054 -1.28,1.03464 -1.30731,0.34187 -1.79801,1.46544 -0.64,1.46544 1.00623,0 0.74714,1.74194 -0.32,2.15144 -0.528,0.20261 -0.96,1.06216 -0.96,1.91011 0,0.84795 -0.45057,1.91566 -1.00127,2.3727 -0.84365,0.70016 -0.96958,2.32435 -0.8,10.31802 0.1107,5.21787 0.40987,9.4872 0.66483,9.48738 1.00297,6.4e-4 2.41644,3.93123 2.41644,6.71949 0,1.61848 -0.5632,4.10839 -1.25156,5.53312 -1.17924,2.44074 -1.21668,3.29877 -0.64806,14.84908 0.65164,13.23634 0.6219,12.92803 2.57171,26.65866 2.5801,18.16916 5.96931,31.65544 8.67771,34.53024 0.48201,0.51163 2.10303,1.51963 3.60224,2.24 6.76158,3.2489 3.70025,8.31263 -6.55204,10.83772 -9.85765,2.42789 -26.44307,3.06926 -34.44571,1.33203 z M 212.1571,278.72731 c -0.1266,-4.15508 -0.0325,-8.27469 0.20907,-9.15469 0.38441,-1.40022 0.44613,-1.31631 0.49427,0.672 0.0303,1.2496 0.35442,2.57142 0.72038,2.93738 0.92892,0.92891 0.52322,12.53136 -0.44944,12.85354 -0.52901,0.17522 -0.81062,-1.9372 -0.97428,-7.30823 z m -3.72165,-47.79915 c 0,-4.582 0.92298,-5.15128 1.08247,-0.66765 0.0674,1.89362 -0.14864,3.61051 -0.48,3.8153 -0.34874,0.21554 -0.60247,-1.11011 -0.60247,-3.14765 z m 5.12,-75.63331 c 0,-0.54878 0.29269,-0.81687 0.65043,-0.59578 0.35774,0.2211 0.48475,0.67009 0.28223,0.99777 -0.54863,0.88771 -0.93266,0.72219 -0.93266,-0.40199 z"
     id="path3701"
     inkscape:connector-curvature="0" />
</svg>
