<?xml version="1.0" encoding="UTF-8"?>
<!-- Created with Inkscape (http://www.inkscape.org/) -->
<svg version="1.1" viewBox="0 0 750 750" xmlns="http://www.w3.org/2000/svg" xmlns:cc="http://creativecommons.org/ns#" xmlns:dc="http://purl.org/dc/elements/1.1/" xmlns:rdf="http://www.w3.org/1999/02/22-rdf-syntax-ns#">
 <metadata>
  <rdf:RDF>
   <cc:Work rdf:about="">
    <dc:format>image/svg+xml</dc:format>
    <dc:type rdf:resource="http://purl.org/dc/dcmitype/StillImage"/>
    <dc:title/>
   </cc:Work>
  </rdf:RDF>
 </metadata>
 <g fill="currentColor">
  <path id="eflat" d="m456.23 480.43c-5.0636-1.0992-8.3181-2.6957-9.8929-4.8528-1.5444-2.1156-0.88325-3.3343 3.2601-6.0091 3.7885-2.4458 4.7472-4.9418 6.8479-17.829 1.5653-9.6025 3.4344-31.393 3.2739-38.169-0.0743-3.1384-0.24025-3.5423-1.5304-3.7254-4.0506-0.57505-5.4657-13.923-1.5153-14.292 0.5733-0.0536 1.4744-0.126 2.0024-0.16084 1.0302-0.068 1.0494-0.42681 0.77715-14.522-0.1265-6.5486-0.23854-7.1264-1.4428-7.4413-2.0035-0.52392-3.1744-3.4924-3.1744-8.0478 0-4.0677 1.0534-6.211 3.0526-6.211 0.39151 0 0.87377-0.26201 1.0717-0.58225 0.76894-1.2442-0.49074-2.5178-3.1534-3.1882-2.9284-0.73737-6.7309-3.4644-6.7309-4.8272 0-1.4047 2.2696-2.9223 4.3704-2.9223 2.7003 0 2.5683-1.0112-0.31259-2.395-4.3378-2.0836-4.5032-4.8823-0.36988-6.2601 1.682-0.56065 1.8678-0.82916 1.2891-1.8631-0.49207-0.87929-0.45315-1.565 0.14299-2.5196 0.68501-1.0969 0.65747-1.4135-0.16825-1.9343-0.88805-0.56018-0.88857-0.77349-5e-3 -2.1217 0.89419-1.3647 0.8807-1.611-0.15054-2.7505-0.95151-1.0514-0.99745-1.4145-0.28718-2.2704 0.9809-1.1819 0.88171-6.5481-0.14388-7.7838-0.48676-0.58651-0.45924-1.0894 0.0962-1.7587 0.56017-0.67496 0.66602-2.7798 0.37818-7.52-0.8349-13.749-1.2961-30.722-0.88194-32.455 0.41927-1.7545-1.3635-1.3298-2.3393 0.55721-0.7767 1.502-0.85279 2.2734-0.32209 3.265 0.8422 1.5737 0.244 3.81-1.0192 3.81-1.2564 0-1.1657 0.30556 0.68313 2.3005 1.8288 1.9733 1.9939 2.9759 0.67071 4.074-2.0252 1.6807-6.4613-2.1698-4.8025-4.1685 0.41932-0.50525 0.6262-1.9773 0.46618-3.3172-0.15822-1.3248 0.0258-2.9199 0.40896-3.5446 0.57627-0.93955 0.33725-1.4175-1.3834-2.7664-2.32-1.8188-2.6277-3.0877-0.97332-4.0136 1.0435-0.58395 1.0403-0.69273-0.0561-1.9042-0.63952-0.70667-1.0626-1.8103-0.94014-2.4525 0.23566-1.2359 3.0896-2.06 3.0896-0.89213 0 0.37648 0.39888 0.68451 0.8864 0.68451 2.6189 0 4.3219-8.6693 2.467-12.559-0.97813-2.0512-0.97076-2.4191 0.11218-5.6051 0.89944-2.6461 0.99949-3.7079 0.4467-4.7408-0.98525-1.841-0.89043-4.6725 0.24768-7.3964 1.38-3.3027 1.2001-7.5702-0.46328-10.994-1.4198-2.9224-1.4203-2.9369-0.21571-5.9371 0.82308-2.0499 1.3523-5.5548 1.662-11.008 0.2499-4.4 0.65813-8.7375 0.90717-9.6389 0.31581-1.1431 0.14679-1.8929-0.55866-2.4784-1.1926-0.98977-1.3272-3.3109-0.25431-4.3839 0.44129-0.44128 0.69063-2.1934 0.59768-4.2-0.11745-2.5356 0.12521-3.7275 0.92086-4.5232 0.96144-0.96143 1.0282-2.1158 0.60633-10.488-0.68906-13.676-0.70199-21.419-0.0573-34.283l0.57314-11.435-1.4322 0.76649c-2.0903 1.1187-3.8857-0.67971-3.8857-3.8922 0-2.6934 1.6544-4.166 4.32-3.8451 1.2951 0.15591 1.44-0.10097 1.44-2.5531v-2.7265l-1.3049 1.4007c-2.6053 2.7964-6.1636 0.44918-5.5017-3.6293 0.57438-3.5395 3.1244-4.9609 5.1914-2.8939 0.56991 0.5699 1.207 0.86542 1.4157 0.65669 0.20872-0.20872 0.61417-4.059 0.90098-8.5562 0.73094-11.461 1.7297-14.373 5.4638-15.934 2.8993-1.2114 6.0599-0.59803 8.122 1.5763 1.985 2.093 3.3426 8.3441 3.983 18.341 0.24808 3.872 0.54515 7.76 0.66015 8.64s0.40615 6.784 0.64701 13.12 0.7359 12.096 1.1001 12.8c0.4203 0.81247 0.72857 12.15 0.84399 31.04 0.21002 34.375 0.48061 37.504 3.7899 43.823 2.9737 5.6778 4.1131 9.3991 4.1207 13.457 0.0105 5.6507-3.3894 9.9418-5.5432 6.9963-1.2268-1.6778-1.3235-1.1073-0.71236 4.2037 0.30377 2.64 0.56178 5.736 0.57337 6.88 0.0135 1.3311 0.33888 2.08 0.90377 2.08 1.4331 0 2.1238 1.8971 1.3942 3.8299-0.36151 0.95775-0.44863 2.2851-0.19361 2.9497 0.25502 0.66458 0.51814 3.659 0.58469 6.6544 0.11561 5.2028 0.0567 5.4552-1.319 5.6506-1.2459 0.17694-1.44 0.58676-1.44 3.04 0 2.6896 0.0937 2.8355 1.8208 2.8355 4.629 0 5.0231 4.9004 0.57919 7.2023-1.32 0.68374-2.4 1.6469-2.4 2.1404 0 1.2344 0.40943 1.1377 2.7627-0.65292 2.8952-2.2029 5.2263-2.6539 7.162-1.3856 2.1678 1.4204 2.0112 2.4773-0.78067 5.2691-1.4552 1.4552-2.07 2.478-1.5865 2.6392 1.2503 0.41676 2.6825 3.715 2.6825 6.1775 0 1.2394-0.70901 3.8567-1.5756 5.8162-2.4421 5.522-2.6514 7.5393-0.86255 8.3138 2.1547 0.93293 2.2915 3.3226 0.24366 4.2557l-1.6419 0.74808 1.4325 0.71418c0.78788 0.3928 1.5308 1.2248 1.651 1.8488 0.27841 1.4457-1.1108 3.1517-2.22 2.7261-1.9946-0.76538-2.2966 1.798-2.1996 18.667 0.0499 8.6759 0.11476 9.12 1.3324 9.12 0.704 0 1.28 0.31496 1.28 0.69992 0 0.38495-0.576 0.85054-1.28 1.0346-1.3073 0.34187-1.798 1.4654-0.64 1.4654 1.0062 0 0.74714 1.7419-0.32 2.1514-0.528 0.20261-0.96 1.0622-0.96 1.9101s-0.45057 1.9157-1.0013 2.3727c-0.84365 0.70016-0.96958 2.3244-0.8 10.318 0.1107 5.2179 0.40987 9.4872 0.66483 9.4874 1.003 6.4e-4 2.4164 3.9312 2.4164 6.7195 0 1.6185-0.5632 4.1084-1.2516 5.5331-1.1792 2.4407-1.2167 3.2988-0.64806 14.849 0.65164 13.236 0.6219 12.928 2.5717 26.659 2.5801 18.169 5.9693 31.655 8.6777 34.53 0.48201 0.51163 2.103 1.5196 3.6022 2.24 6.7616 3.2489 3.7002 8.3126-6.552 10.838-9.8576 2.4279-26.443 3.0693-34.446 1.332z"/>
  <path id="bflat" d="m555 532.87c-8.7518-1.2308-12.908-2.67-15.278-5.2904-1.4822-1.6389-0.98954-3.1017 1.3412-3.9823 0.97702-0.36911 2.5764-1.4344 3.5542-2.3672 4.8002-4.5796 10.132-34.103 11.129-61.627l0.41565-11.475h-1.6018c-2.6083 0-3.9563-2.1179-4.1984-6.5962-0.27475-5.0831 0.69755-7.0523 3.6951-7.4838l2.2231-0.32 0.16952-19.04c0.1684-18.914 0.16069-19.04-1.1621-19.04-4.3333 0-6.5159-6.2224-4.1601-11.861 0.81375-1.9476 1.2085-2.2194 3.2224-2.2194h2.295l-0.36478-13.12-3.6601-0.39338c-8.0944-0.86996-10.784-6.7297-3.6429-7.9362 2.6773-0.45233 3.3741-1.8676 1.2511-2.5414-1.7067-0.54169-4.5309-4.0048-4.1262-5.0596 0.53787-1.4017 3.2924-2.3094 7.0082-2.3094 1.9194 0 3.4899-0.288 3.4899-0.64s-0.42187-0.64-0.93748-0.64c-1.6915 0-2.7905-4.8054-1.4138-6.182 0.66843-0.66843 0.50843-5.2148-0.19891-5.6519-0.34661-0.21422-0.64827-1.0232-0.67035-1.7978-0.0221-0.77455-0.29903-5.8723-0.61543-11.328-0.71925-12.402-0.68866-11.408-0.4369-14.202 0.11704-1.299 0.58301-2.8079 1.0355-3.3531 0.66548-0.80185 0.67878-3.4378 0.0696-13.794-0.41421-7.0414-0.61551-13.025-0.44733-13.297 0.16819-0.27213 0.0406-1.914-0.28339-3.6485-0.38374-2.054-0.36467-3.3782 0.0547-3.7976 0.95538-0.95539 0.77975-2.3079-0.29971-2.3079-1.3834 0-2.952 3.4825-3.3632 7.4666-0.316 3.0617-0.19352 3.5987 1.0137 4.4443 1.7588 1.2319 1.8522 4.4191 0.16041 5.4757-1.1782 0.73578-1.174 0.78868 0.14711 1.8584 1.8905 1.5308 0.87582 4.6626-1.6043 4.9516-2.5149 0.29311-3.7301-1.8762-3.7301-6.659 0-5.5008-0.55325-7.7656-1.9887-8.141-1.667-0.43593-1.5879-3.3003 0.12428-4.4995l1.3356-0.93551-1.3356-0.42391c-0.82185-0.26085-1.3318-0.96124-1.3258-1.8208 0.015-2.1407 0.76018-2.8733 3.1578-3.1048 2.041-0.19706 2.2581-0.43843 3.069-3.4121 2.1303-7.8123 2.6258-14.261 1.4158-18.424-0.70696-2.4322-0.72993-3.3209-0.11143-4.3113 1.0817-1.7321 0.98451-10.217-0.14809-12.928-0.80958-1.9376-0.80958-2.6098 0-5.2999 1.2531-4.1637 1.1709-10.659-0.18303-14.471-1.0446-2.9412-1.0466-3.3055-0.0335-6.1659 0.73677-2.0803 1.1999-6.165 1.4672-12.939 0.21478-5.4444 0.62301-10.196 0.90717-10.56 0.97131-1.2428 1.4402-18.184 0.56994-20.591-0.90596-2.5054-0.33478-3.9903 1.9319-5.0222 1.3202-0.60107 1.3876-1.0364 1.3858-8.96-1e-3 -4.5805-0.32545-10.92-0.72101-14.088-0.72524-5.8083-0.55797-9.9665 1.6284-40.48 0.58443-8.1567 0.57698-10.4-0.0345-10.4-1.4304 0-2.7911-1.9879-2.7911-4.0777 0-2.3111 0.96348-3.6023 2.688-3.6023 0.82794 0 1.1545-0.49509 1.1607-1.76 5e-3 -0.968 0.1824-2.408 0.39465-3.2 0.33907-1.2653 0.14661-1.44-1.5862-1.44-2.2778 0-3.4876-1.6573-3.1766-4.3516 0.16102-1.3953 0.65085-1.8399 2.5416-2.3071l2.3421-0.57874 0.43958-5.1813c0.65793-7.7548 2.0228-15 3.1496-16.72 1.4444-2.2044 5.156-3.1719 8.6051-2.2432 2.3354 0.62885 2.9259 1.1425 3.9334 3.4209 1.6548 3.7427 3.0719 17.483 3.8077 36.921 0.33978 8.976 0.95743 23.484 1.3726 32.239 0.57138 12.052 0.57655 18.046 0.0213 24.673-0.40343 4.8148-0.73348 20.626-0.73348 35.137 0 25.148 0.0625 26.554 1.3351 30.047 4.1919 11.504 4.2389 22.322 0.1049 24.136-1.3792 0.60507-1.44 0.9589-1.44 8.3733 0 4.2579 0.21043 7.952 0.46762 8.2092 0.2572 0.2572 0.37535 2.4652 0.26256 4.9067-0.19132 4.1414-0.11538 4.439 1.1324 4.439 1.4635 0 1.8128 0.9771 0.53745 1.5036-0.48466 0.20007-0.23239 0.50279 0.64 0.76797 0.792 0.24074 1.44 0.67857 1.44 0.97296 0 1.4955-1.6154 3.7523-2.8077 3.9224-1.2718 0.18153-1.3631 0.61989-1.533 7.3647-0.1778 7.0569-0.15476 7.1887 1.44 8.2336 2.0522 1.3446 2.059 2.8628 0.0207 4.6351-1.7915 1.5577-2.1538 3.9596-0.59729 3.9596 0.55148 0 1.9467-0.72 3.1004-1.6 4.5189-3.4467 9.7306-0.6253 6.0608 3.281l-1.3561 1.4435 1.3561 1.724c0.74587 0.94822 1.3561 2.2801 1.3561 2.9598 0 0.67968 0.33305 1.8581 0.74009 2.6186 2.0875 3.9005 1.5928 10.896-1.3671 19.333-2.1402 6.1008-2.7221 9.2892-1.8802 10.304 0.91493 1.1024 0.3108 2.8164-0.99272 2.8164-1.3624 0-1.2236 0.82004 0.29991 1.7715 1.6798 1.049 1.7057 3.3485 0.0378 3.3485-1.9103 0-2.0986 1.0104-0.3377 1.8127 2.899 1.3209 1.7259 3.9473-1.7631 3.9473-1.2799 0-1.3062 0.21917-0.90233 7.52 1.1888 21.49-4e-3 34.127-3.2654 34.6-1.3723 0.19895-1.3783 0.27363-1.2541 15.68 0.12274 15.223 0.14728 15.483 1.4771 15.673 1.8302 0.26123 2.8077 2.6726 2.8077 6.9263 0 3.1084-0.24274 3.7819-1.9944 5.5335l-1.9944 1.9944 0.33012 20.516c0.51287 31.874 3.7543 59.042 8.8484 74.163 1.6707 4.9593 3.1987 7.0903 5.8336 8.1356 3.3519 1.3298 3.7231 1.779 2.9223 3.5364-0.90644 1.9894-4.7205 3.8078-10.746 5.123-4.6308 1.0109-26.967 1.8429-31.68 1.1801z"/>
  <path id="alto" d="m213.56 155.29c0-0.54878 0.29269-0.81687 0.65043-0.59578 0.35774 0.2211 0.48475 0.67009 0.28223 0.99777-0.54863 0.88771-0.93266 0.72219-0.93266-0.40199zm-5.12 75.633c0-4.582 0.92298-5.1513 1.0825-0.66765 0.0674 1.8936-0.14864 3.6105-0.48 3.8153-0.34874 0.21554-0.60247-1.1101-0.60247-3.1476zm3.7216 47.799c-0.1266-4.1551-0.0325-8.2747 0.20907-9.1547 0.38441-1.4002 0.44613-1.3163 0.49427 0.672 0.0303 1.2496 0.35442 2.5714 0.72038 2.9374 0.92892 0.92891 0.52322 12.531-0.44944 12.854-0.52901 0.17522-0.81062-1.9372-0.97428-7.3082zm38.355 352.29c0.34829-0.44 0.79385-5.192 0.99015-10.56 0.31663-8.6587 0.24165-9.76-0.66449-9.76-0.56176 0-1.5481 0.47663-2.1918 1.0592-1.8123 1.6401-1.7836 20.061 0.0312 20.061 0.66089 0 1.4866-0.36 1.8349-0.8zm-10.077 45.301c-12.729-3.6447-20.183-12.942-22.957-28.634-0.39151-2.2146-0.80536-7.8212-0.91966-12.459-0.12653-5.1339-0.49698-8.7809-0.94701-9.3231-0.55533-0.66912-0.64672-24.679-0.36743-96.528l0.37176-95.637-4.9131 0.0298c-5.4491 0.033-6.2239-0.34706-3.8622-1.8945 1.1037-0.72317 1.5945-1.6267 1.5945-2.9353 0-2.5068 2.6986-4.461 4.5573-3.3002 1.0043 0.6272 1.2882 0.58931 1.5372-0.20525 0.16801-0.53598 0.43881-1.4023 0.60177-1.9251 0.23926-0.76757 0.35512-30.521 0.15331-39.369-0.0281-1.232 0.0312-7.424 0.13174-13.76 0.10056-6.336 0.15489-20.376 0.12074-31.2-0.06-19.033-0.10295-19.68-1.3043-19.68-0.68323 0-1.4202 0.288-1.6378 0.64-0.74261 1.2016-4.0725 0.71943-4.8319-0.69961-1.6442-3.0722 1.4882-6.8976 3.8775-4.7353 0.64854 0.58691 1.7046 0.9637 2.3468 0.83731 1.0388-0.20444 1.1711-0.96989 1.1992-6.9361 0.0173-3.6885 0.25966-7.376 0.53844-8.1945 0.67049-1.9686-0.0276-2.5756-1.1791-1.025-0.73273 0.98664-1.1474 1.0913-2.0734 0.52353-1.767-1.0835-1.7268-11.323 0.0458-11.664 1.5679-0.30195 2.2948 0.92505 2.3069 3.8942 9e-3 2.154 0.17998 2.4 1.6699 2.4 1.6322 0 1.6524-0.0557 1.2031-3.3226-0.25134-1.8274-0.85437-3.72-1.3401-4.2057-1.1413-1.1413-1.1364-2.7116 8e-3 -2.7116 1.3758 0 1.7489-1.768 1.2714-6.0244-0.31149-2.7764-0.79162-4.1462-1.6712-4.7678-0.80881-0.57158-1.1198-1.3436-0.90237-2.24 0.51411-2.1193-0.45468-8.2716-1.3493-8.5688-0.55497-0.18432-0.80935 0.58373-0.83055 2.5076l-0.0305 2.7733-0.87173-2.56c-0.47945-1.408-0.98925-6.16-1.1329-10.56-0.23434-7.1788-0.44119-8.3503-2.0152-11.413-1.6677-3.2447-2.0803-6.9698-0.74274-6.7057 0.33901 0.0669 0.92165 1.2097 1.2947 2.5395 0.5819 2.074 1.0225 2.4991 3.0984 2.9901 2.6431 0.62506 3.9617 0.0632 2.1851-0.9311-0.61307-0.34309-1.1147-1.1279-1.1147-1.744s-0.3205-1.4407-0.71224-1.8324c-0.4137-0.4137-0.48831-1.0709-0.17799-1.568 0.29383-0.47067 0.59256-1.241 0.66384-1.7119 0.0713-0.47088 0.56227-1.3349 1.0911-1.92 0.94679-1.0476 1.396-3.8508 1.1703-7.3039-0.097-1.4852-0.40229-1.76-1.955-1.76-1.5324 0-1.9042-0.32093-2.224-1.92-0.22844-1.1422-0.7858-1.92-1.3758-1.92-1.1092 0-2.4706-2.9564-1.9664-4.2704 0.17932-0.46729 0.99107-0.84963 1.8039-0.84963s1.971-0.576 2.5738-1.28c0.60279-0.704 1.5079-1.28 2.0114-1.28 1.3406 0 1.6603-2.494 1.5766-12.302-0.0682-7.9935-0.18282-8.8158-1.2772-9.1631-0.66122-0.20991-1.2022-0.92391-1.2022-1.5867 0-0.66278-0.4502-1.457-1.0004-1.7649-0.90725-0.50772-0.90725-0.63721 0-1.3902 0.55025-0.45666 1.0004-1.2578 1.0004-1.7804 0-0.61178 0.36816-0.80883 1.0339-0.55336 0.88183 0.33839 0.98361-4e-3 0.69195-2.3315-0.18809-1.5006-0.14934-5.0323 0.0861-7.8483 0.39043-4.6699 0.55464-5.138 1.868-5.3245 1.3834-0.19648 1.44-0.45535 1.44-6.5881 0-4.7356-0.20652-6.3567-0.8-6.2796-3.0656 0.39808-3.4449-2.5582-0.54785-4.2695 4.5308-2.6764 2.866-15.417-2.6897-20.585-1.4152-1.3164-3.4617-3.2355-4.5478-4.2648-3.3898-3.2125-6.7484-5.375-7.9044-5.0892-0.71222 0.17608-2.6594-1.1744-5.4315-3.7672-2.8816-2.6952-4.61-3.8801-5.1879-3.5567-0.55169 0.30874-1.8091-0.32181-3.4604-1.7353-1.4266-1.2211-3.0168-2.2202-3.5338-2.2202-0.51694 0-1.3038-0.4385-1.7486-0.97445s-1.2913-0.82127-1.8812-0.63406c-0.64273 0.204-1.677-0.30313-2.5812-1.2655-0.82979-0.88327-1.8905-1.606-2.3572-1.606-1.514 0-0.89772-1.1043 1.0716-1.92 2.4668-1.0218 2.4438-1.1394-0.85587-4.3778-2.3198-2.2767-2.8999-2.5748-3.531-1.8144-0.41535 0.50047-0.5754 1.3784-0.35566 1.951 0.64364 1.6773-0.94465 1.2124-3.0498-0.89278-1.2025-1.2025-1.788-2.3142-1.548-2.9395 1.3157-3.4286 1.2254-3.5918-6.334-11.447-6.9121-7.1822-9.8054-10.894-9.0676-11.631 0.17181-0.17181 0.84104-0.03802 1.4872 0.29728 0.64615 0.33532 5.9852 2.2585 11.865 4.2738 10.432 3.5758 10.739 3.6396 12.73 2.6465l2.04-1.0177 8.0703 6.5138c13.003 10.495 16.07 13.33 16.07 14.853 0 0.88379 1.3798 2.594 3.84 4.7596 2.112 1.8591 3.84 3.8912 3.84 4.5159 0 1.21 2.4294 3.943 8.6481 9.7292 3.701 3.4436 7.3519 7.7133 7.3519 8.5981 0 0.23315 0.54419 1.1884 1.2093 2.1227 2.543 3.5723 5.1907 18.972 5.1907 30.191 0 7.1637 0.0817 7.6681 1.2422 7.6681 0.68322 0 1.4752 0.36 1.76 0.8 0.28477 0.44 0.51777 9.3435 0.51777 19.786s0.17725 19.163 0.3939 19.381c0.21665 0.21729 1.6782 0.0516 3.248-0.36827 2.4377-0.65199 3.1725-0.60446 5.0373 0.32581 1.3584 0.67765 2.2672 0.83738 2.4054 0.42277 0.12217-0.36651 0.63013-0.66638 1.1288-0.66638 0.65989 0 0.90667 0.8607 0.90667 3.1622 0 3.3772-0.80591 4.6113-1.8237 2.7926-0.54304-0.97035-0.82409-1.0041-2.205-0.26512-0.97451 0.52154-3.0251 0.75924-5.337 0.61864l-3.7544-0.22834 0.11254 17.538 0.11254 17.538 1.6475 1.5276c1.905 1.7664 2.126 4.1599 0.65611 7.1064-0.66282 1.3287-0.92793 3.3231-0.8 6.0183 0.17205 3.6247 0.33655 4.0517 1.6314 4.2356 0.96856 0.13756 1.44-0.12435 1.44-0.8 0-1.0298 0.63708-1.2544 2.88-1.0156 1.8472 0.19667 1.9449 0.48924 0.64355 1.9272-0.76932 0.85008-1.9723 1.2839-3.5601 1.2839-2.1145 0-2.4813 0.23841-3.1008 2.0155-0.97604 2.7999-0.91476 3.0555 0.89739 3.7445 1.7634 0.67043 1.9489 1.3523 0.90071 3.3108-0.50572 0.94495-0.50572 1.5002 0 2.0059 0.38461 0.38461 0.69929 1.3264 0.69929 2.0929 0 0.76649 0.458 1.7737 1.0178 2.2383 0.84106 0.69802 0.86884 0.9639 0.16 1.5312-1.8892 1.5118-2.4578 3.6616-2.4578 9.2922 0 3.4191 0.26067 5.7687 0.64 5.7687 0.352 0 0.64-0.38737 0.64-0.86081s0.56151-1.369 1.2478-1.99c0.81758-0.73991 1.3141-2.1512 1.44-4.0934 0.13683-2.1104 0.48795-3.0203 1.2189-3.1589 0.89154-0.16908 1.0124 0.63072 0.91752 6.0742-0.14802 8.4964-1.5044 11.254-4.2939 8.7298-1.0974-0.99312-1.1704-0.97805-1.1704 0.24163 0 0.71546 0.432 1.6594 0.96 2.0976s0.96 1.076 0.96 1.4174 0.576 1.353 1.28 2.2479c2.4797 3.1525 1.117 12.67-1.5029 10.495-0.49658-0.41212-1.1345-1.6789-1.4176-2.815l-0.51468-2.0656-0.24491 2.4642c-0.13997 1.4084 0.18462 3.3693 0.75756 4.5767 0.55135 1.1619 1.0025 2.405 1.0025 2.7625s0.36 0.79601 0.8 0.97456c0.6286 0.25505 0.6196 0.45154-0.042 0.91706-1.0424 0.73348-2.678 3.8141-2.678 5.0441 0 0.50202 0.61641 1.7465 1.3698 2.7655 1.378 1.8638 1.4054 3.1684 0.17788 8.4453-0.33739 1.4504-0.0964 1.8658 1.5873 2.7364 1.0918 0.56457 1.985 1.4511 1.985 1.9701 0 1.107-1.9881 1.2595-3.0162 0.23132-0.39172-0.39172-1.0253-0.51873-1.408-0.28222-1.2419 0.76755-0.73615 2.6906 0.90424 3.438 1.8246 0.83134 1.8256 0.83702 1.6335 9.2197-0.21044 9.184 0.74084 12.388 2.3848 8.0332l0.77893-2.0636 1.3773 1.3773c2.2109 2.2109 1.9176 7.2753-0.7387 12.753-1.6958 3.4969-2.2325 5.5764-2.6213 10.157-0.80029 9.4286-1.8726 19.773-2.1562 20.8-0.14576 0.528-0.44201 2.544-0.65833 4.48-0.21633 1.936-0.54462 4.0378-0.72954 4.6707s8e-3 1.5658 0.42928 2.0731c0.49674 0.59855 0.6745 2.5325 0.50633 5.5088-0.218 3.858-0.48368 4.7356-1.6726 5.525-1.1912 0.79091-1.4134 1.5301-1.4134 4.7004 0 2.8516 0.22352 3.7619 0.92371 3.7619 1.6719 0 2.7681 2.4409 2.527 5.6272-0.30998 4.0975-0.71046 5.8644-1.5617 6.89-1.1229 1.3531-0.12349 2.2027 2.591 2.2027 1.3664 0 2.6481 0.26478 2.8481 0.5884 0.74614 1.2073-1.6703 2.6116-4.4938 2.6116-3.1555 0-3.7917 1.1282-1.4959 2.6526 2.4765 1.6443 2.2454 11.184-0.3111 12.842-1.2268 0.79572 1.6645 2.4405 3.5971 2.0462 0.95942-0.1957 2.1042-0.13344 2.544 0.13835 0.43976 0.27178 1.5017 0.50912 2.3598 0.52741 2.516 0.0536 3.8353 5.6108 2.3925 10.078-0.95105 2.9448-0.9594 3.4238-0.083 4.7614 1.3617 2.0783 1.3703 3.5353 0.0617 10.474-0.63069 3.344-1.27 6.7378-1.4207 7.5418-0.1507 0.80396-0.98348 1.785-1.8506 2.1801l-1.5766 0.71836 0.26391 11.26c0.31493 13.437 0.23053 12.378 0.95095 11.933 0.32246-0.19929 1.3514-0.0715 2.2866 0.2841 2.3126 0.87923 1.8528 2.5791-0.95287 3.5229l-2.24 0.75349-0.17717 31.463-0.17718 31.463h2.8278c3.1407 0 3.1549-0.022 3.9176-6.08 0.50009-3.9719 3.9917-17.885 5.1398-20.48 0.46712-1.056 1.47-3.499 2.2286-5.4289 0.75861-1.9299 2.0369-4.9539 2.8407-6.72 0.80378-1.7661 2.5469-5.9471 3.8737-9.2911 1.3267-3.344 2.9509-7.1485 3.6092-8.4545 1.8228-3.6159 1.5494-6.0236-1.043-9.1873-2.4402-2.978-2.609-3.4932-1.506-4.5962 1.0916-1.0916 6.2546 2.541 18.773 13.208 20.544 17.506 34.893 31.261 34.893 33.448 0 1.6858-1.7411 1.4706-4.3788-0.54123-4.7741-3.6414-10.628-1.2116-20.208 8.3886-12.852 12.879-20.481 27.468-22.451 42.935-0.2242 1.76-0.68613 4.6606-1.0265 6.4457-0.3605 1.8907-0.38678 3.8731-0.063 4.7485 0.56537 1.5283 0.36124 2.9834-1.4125 10.068-1.5349 6.1309-3.4907 9.6758-7.7105 13.976-7.1375 7.2726-16.201 10.088-24.67 7.6628z"/>
  <path id="bass" d="m341.47 23.549c-6.9822 0.04062-14.098 2.3722-19.914 7.1211-2.376 1.9402-4.3184 3.8829-4.3184 4.3164s-0.60756 1.3373-1.3496 2.0078c-1.7981 1.6249-4.259 6.4193-6.7012 13.059-1.1005 2.992-2.8841 7.8296-3.9629 10.75-1.0788 2.9204-2.696 6.2755-3.5957 7.4551-1.72 2.255-6.27 4.834-8.5254 4.834-1.5757 0-9.1465-6.7863-9.1465-8.1992 0-1.0515-1.7919-3.3203-2.623-3.3203-0.27785 0-1.6018-1.006-2.9414-2.2363-1.3396-1.2303-2.7944-2.2385-3.2344-2.2402s-0.80078-0.25567-0.80078-0.56445c0-0.30878-3.3835-3.2528-7.5195-6.541l-7.5195-5.9785-4.8008-0.44727c-2.64-0.24625-7.2482-1.2073-10.24-2.1367-8.7798-2.7274-12.936-3.6557-13.564-3.0273-0.85797 0.85797 0.64381 3.7852 4.0996 7.9902 1.6712 2.0335 3.377 4.3366 3.791 5.1191 0.41402 0.78249 1.7153 2.6046 2.8926 4.0488 2.3232 2.85 2.683 4.0938 1.1816 4.0938-1.3819 0-1.19 1.3592 0.70899 5.0195 1.892 3.6468 3.1379 4.4215 4.7539 2.959 1.0321-0.93404 1.2237-0.86385 2.4883 0.91211 0.89288 1.2539 1.2399 2.4428 0.9961 3.4141-0.43707 1.7414 3.1323 7.1992 4.375 6.6895 0.41693-0.17104 1.2572-0.51073 1.8672-0.75586 0.80451-0.32329 1.756 0.27416 3.4648 2.1777 1.2957 1.4434 2.8667 2.625 3.4922 2.625 0.62548 0 1.3156 0.28667 1.5332 0.63867s1.2329 0.64062 2.2559 0.64062c1.1275 0 2.6869 0.71917 3.9609 1.8262 2.4476 2.1261 5.0594 3.636 5.875 3.3984 0.31429-0.09155 2.3379 0.27856 4.498 0.82031 14.329 3.5935 29.011-3.6685 34.982-17.301 0.75739-1.7292 3.1711-7.526 5.3633-12.881 5.6569-13.818 7.3277-15.857 14.309-17.467 8.8551-2.0426 15.626 2.5254 15.74 10.621 0.0613 4.3534-0.55559 5.6817-1.8281 3.9414-0.81297-1.1118-2.8771-1.5569-2.9609-0.63867-0.11449 1.2544 0.0506 7.6657 0.22656 8.8105 0.3225 2.0977 1.1216 2.9431 2.5938 2.7402 1.2466-0.17179 1.4037 0.14112 1.5781 3.1719 0.17713 3.0779 0.0571 3.4139-1.4023 3.9688-1.8517 0.70401-2.9512 2.4735-2.9512 4.7441 0 1.2564-0.36806 1.6417-1.7109 1.8008-1.7944 0.21255-3.4434 2.4623-4.2871 5.8477-0.45479 1.825 0.64772 9.1757 1.5527 10.355 1.0267 1.3384 1.3503 5.419 0.60938 7.6641-0.59785 1.8116-0.58825 2.5117 0.0391 3.2676 0.55784 0.67216 0.59439 1.1654 0.125 1.6348-0.37074 0.37077-0.51955 1.8089-0.33203 3.207 0.30752 2.2928 0.11865 2.7362-1.9883 4.666-1.2808 1.1732-2.3281 2.5994-2.3281 3.168 0 1.6404-0.0761 1.9532-0.63867 2.6328-0.29097 0.352-0.29255 1.9355-2e-3 3.5195 0.31582 1.7217 0.28442 3.177-0.0801 3.6172-0.52704 0.63649-0.31912 7.6118 0.38867 13.023 0.87431 6.6848 1.2714 8.1448 2.6094 9.5996 1.9437 2.1133 2.0724 2.9352 2.4942 15.805 0.19836 6.0525 0.49269 11.38 0.65234 11.84 0.83904 2.4147 1.4394 29.839 0.8164 37.293-0.17548 2.0994-0.0888 4.2602 0.19336 4.8008 0.28218 0.54056 0.66873 1.4856 0.85938 2.1016s0.9151 1.1211 1.6094 1.1211 1.3866 0.21451 1.5391 0.47852c0.15251 0.26399 0.48267 12.505 0.73437 27.201 0.4795 27.996 0.46469 28.185-2.1914 25.781-1.416-1.2815-5.1445 0.8631-5.1445 2.959 0 3.169 3.5442 4.7833 5.873 2.6758 0.64587-0.5845 1.3225-0.9158 1.502-0.73633 0.53945 0.53943 0.57331 44.093 0.0371 47.736-0.37885 2.5744-0.26951 3.7231 0.46094 4.8379 0.79725 1.2168 0.99251 5.4828 1.1699 25.424 0.11725 13.179-0.0146 24.322-0.29297 24.762-0.27834 0.44-0.9296 0.80078-1.4492 0.80078-1.3103 0-3.9135 1.7868-4.3828 3.0098-0.21405 0.55779 0.0478 1.4958 0.58008 2.084 1.9406 2.1443 1.8591 4.6493-0.22461 6.9062-1.0562 1.144-2.3428 2.0801-2.8594 2.0801-1.1388 0-4.3967 3.7299-4.082 4.6738 0.6334 1.9003 2.2719 1.9066 5.3457 0.0195 3.3334-2.0464 7.009-3.0963 7.584-2.166 0.19262 0.31167 0.53613 9.6964 0.76563 20.854l0.41797 20.285-1.9199-0.42188c-1.3409-0.29452-2.1626-0.12989-2.7226 0.54492-0.77889 0.93851-0.7134 13.68 0.33008 63.41 0.5857 27.913 0.83427 44.847 1.2344 84.16 0.23465 23.056 0.5138 43.28 0.61914 44.941 0.12648 1.9953-0.11056 3.2709-0.69726 3.7578-0.66707 0.5536-0.88868 2.6425-0.88868 8.3828v7.6445l-2.1973 2.0703c-3.9612 3.7358-3.592 8.056 0.94531 11.059 1.5518 1.0269 2.5176 2.2345 2.7617 3.4551 0.41955 2.0977 0.62847 40.023 0.22461 40.771-0.14152 0.2624-0.63853 1.8899-1.1055 3.6152l-0.84961 3.1367 2.041 1.8223c2.3375 2.0885 3.098 2.2129 5.0723 0.83008 2.3641-1.6559 2.8816-3.226 1.9453-5.9082-0.45672-1.3084-1.0825-2.5603-1.3906-2.7832-0.30813-0.22291-0.53104-10.518-0.49414-22.879l0.0664-22.475 1.7578-2.6543c1.6956-2.5622 1.7711-2.6012 2.1856-1.1211 0.23614 0.84339 0.45708 2.5986 0.49218 3.9004 0.0741 2.7485 2.8266 11.842 4.7012 15.531 4.2434 8.3515 12.372 15.297 22.564 19.281 4.1143 1.6083 5.2373 1.756 13.76 1.8066l9.2793 0.0547 5.6836-2.8301c5.407-2.6911 5.8369-3.0613 8.8008-7.6016 1.7137-2.6252 3.1152-5.0999 3.1152-5.5 0-0.40007 0.53661-1.7322 1.1914-2.959 2.2067-4.1343 3.4332-10.757 3.4336-18.549 8e-4 -15.648 2.871-33.964 7.0215-44.801 6.7946-17.741 16.77-33.371 25.955-40.666 5.6522-4.489 7.315-5.0385 12.395-4.1016 11.158 2.0582 13.847-2.9838 6.6641-12.504-3.5456-4.6994-14.195-15.345-18.58-18.574-1.408-1.0369-3.4066-2.6842-4.4414-3.6602-1.0348-0.976-2.1152-1.7734-2.4004-1.7734s-1.0236-0.5051-1.6406-1.1211c-2.4379-2.4338-16.31-11.094-23.811-14.865-12.496-6.2831-21.761-7.7833-24.824-4.0195-2.1436 2.6341-2.2113 2.3481 2.7695 11.494 1.2472 2.2902 0.61328 5.5814-4.4062 22.91-1.2235 4.224-2.8428 10.704-3.5996 14.4-0.75682 3.696-1.6616 7.8732-2.0098 9.2812-0.34816 1.408-0.74305 4.1421-0.87891 6.0781s-0.55267 6.4019-0.92578 9.9219c-0.37312 3.52-0.68631 9.176-0.69531 12.57-0.0178 6.6679-0.18085 6.9702-3.748 6.9277-3.9661-0.0473-3.798 1.1383-4.3594-30.732-0.82595-46.89-0.63034-51.235 2.3906-52.797 2.319-1.1992 2.319-1.2058-0.29297-2.4453l-2.1543-1.0234-0.46289-9.957c-0.34567-7.4354-0.26618-10.193 0.3125-10.891 0.5929-0.71435 0.59808-1.1459 0.0254-1.8359-0.49918-0.60148-0.77181-4.4927-0.82031-11.68-0.13189-19.532-0.0713-20.319 1.7051-22.096 2.6563-2.6563 3.0006-4.5288 2.5527-13.92-0.56739-11.899-3.0399-17.131-6.8379-14.471-3.0489 2.1355-4.4356 0.52069-2.6973-3.1426 1.3128-2.7665 0.94465-6.0352-0.95117-8.4453-1.6431-2.0888-1.6494-2.5476-0.0391-2.9688 0.81068-0.212 1.2884-0.88403 1.3027-1.834 0.0125-0.82496 0.43445-2.2216 0.9375-3.1016 2.1209-3.7101 0.37809-12.242-2.5879-12.666-1.1304-0.16179-1.3213-0.68191-1.3945-3.8086-0.10221-4.3653 0.61814-5.9238 2.7402-5.9238 1.1214 0 1.7794-0.48712 2.2188-1.6426 0.94986-2.4983 0.74882-7.4954-0.36523-9.0859-0.54395-0.77659-0.92491-2.3522-0.84571-3.502 0.2952-4.2852-0.13288-6.1334-1.9531-8.4238l-1.8672-2.3516 2.2012-5.5781c4.7735-12.086 5.9603-20.245 6.3906-43.936 0.15945-8.7772 0.44699-17.994 0.63672-20.48 0.58028-7.6058 0.35253-17.084-0.43164-18.029-1.2144-1.4632-1.8895-0.32437-1.4473 2.4414 0.41548 2.5983 0.4069 2.6122-1.3398 2.1738-2.8141-0.7063-3.6938 0.51411-3.2031 4.4414 0.40968 3.2789-0.52624 5.4502-1.3848 3.2129-0.21118-0.55031-0.92937-1-1.5957-1-0.82768 0-1.2148-0.45765-1.2188-1.4414-4e-3 -0.792-0.4348-2.8541-0.95898-4.582-1.512-4.984-1.3612-5.498 1.6074-5.498 2.3772 0 2.5586-0.12701 2.5586-1.791 0-0.9856-0.32587-2.1188-0.72461-2.5176-1.129-1.129-0.13346-2.7305 1.6973-2.7305 2.5131 0 3.9442-3.7693 2.916-7.6797-1.0539-4.0082-2.042-4.8008-5.9941-4.8008h-3.334l-0.19922-2.4004c-0.19862-2.3999 0.83572-3.3487 1.5684-1.4394 0.24016 0.62585 1.2351 0.95898 2.8594 0.95898 2.3104 0 2.4922-0.13126 2.4922-1.8164 0-2.054-1.9474-3.3027-5.1504-3.3027-1.74 0-1.8906-0.18114-1.8906-2.2832 0-2.0918 0.12012-2.2397 1.4394-1.7734 2.663 0.94115 6.4716 0.34866 7.748-1.2051 1.7102-2.0816 1.1976-7.9146-0.83985-9.5644-1.8051-1.4617-5.6218-1.5233-7.1777-0.11524-1.1173 1.0112-1.1699 0.92981-1.1699-1.8125 0-3.2618 0.45134-4.0404 1.7285-2.9805 1.5084 1.2518 2.4479-0.45424 2.2793-4.1387-0.0837-1.8302 0.12038-4.8247 0.45313-6.6562 0.45654-2.513 0.36779-4.2395-0.35938-7.0312-0.63422-2.435-0.73547-3.7744-0.29883-3.9199 2.2612-0.75372 5.0603-14.32 5.3359-25.857l0.11719-4.9394-2.707-2.6797c-2.3572-2.3339-2.709-3.043-2.709-5.4629 0-1.717 0.29121-2.7793 0.75977-2.7793 1.1902 0 3.7207-2.6622 3.7207-3.9141 0-1.4482-1.1226-2.1301-3.2402-1.9688l-1.6777 0.12695-0.10547-7.8418-0.10742-7.8437-2.4551-2.3281-2.4531-2.3301-0.43555-21.83c-0.2465-12.362-0.19178-21.83 0.125-21.83 0.30767 0 1.4744 0.31876 2.5938 0.70898 2.0992 0.73178 5.8359-0.1826 5.8359-1.4277 0-0.86315 1.7697-0.66656 2.1465 0.23828 0.59741 1.4347 2.3347-1.5274 2.3242-3.9629-0.0143-3.3258-0.86343-4.4444-2.3516-3.0977-0.841 0.7611-1.4661 0.8787-2.2754 0.42578-0.71896-0.40232-2.3121-0.40744-4.4785-0.0137-4.2036 0.76402-4.2932 0.63338-4.3516-6.3125-0.0964-11.465-0.69024-20.978-1.5938-25.508-0.51658-2.5897-0.93945-6.2571-0.93945-8.1504 0-7.8234-5.1453-22.67-10.143-29.27-5.4916-7.2523-14.248-10.988-23.225-10.936zm59.607 599.14 0.0742 6.3223c0.0417 3.4774 0.019 6.7276-0.0508 7.2226s-0.31876 3.8064-0.55469 7.3594l-0.42969 6.4609-2.0801 0.20118c-1.7746 0.17107-2.1821-0.0656-2.7734-1.6016-1.8445-4.791-3.1421-23.196-1.7188-24.377 0.46477-0.38573 2.3483-0.90054 4.1875-1.1445z"/>
 </g>
</svg>
