<!DOCTYPE svg PUBLIC "-//W3C//DTD SVG 20010904//EN" "http://www.w3.org/TR/2001/REC-SVG-20010904/DTD/svg10.dtd">
<svg version="1.0" xmlns="http://www.w3.org/2000/svg" width="169px" height="172px" viewBox="0 0 1690 1720" preserveAspectRatio="xMidYMid meet">
<g id="layer101" fill="currentColor" stroke="none">
 <path d="M826 1638 c-3 -13 -6 -52 -6 -88 -1 -36 -5 -85 -11 -110 -11 -53 -28 -211 -38 -365 -6 -94 -12 -123 -43 -200 -20 -49 -50 -128 -67 -174 -44 -122 -90 -175 -240 -279 -110 -78 -181 -111 -248 -117 -91 -10 -103 -13 -103 -35 0 -28 30 -40 97 -40 109 0 188 32 351 142 170 115 294 104 482 -42 52 -40 132 -105 176 -144 45 -39 94 -78 110 -86 16 -8 42 -23 57 -33 19 -13 39 -18 60 -14 19 2 60 -6 101 -19 105 -36 113 -27 12 12 -49 19 -94 41 -100 48 -6 7 -47 36 -91 64 -94 60 -289 262 -330 342 -29 57 -78 262 -95 395 -16 130 -28 413 -19 460 22 113 -4 305 -41 305 -4 0 -10 -10 -14 -22z"/>
 <path d="M742 342 c-30 -5 -79 -73 -87 -122 -9 -52 19 -147 53 -183 37 -39 88 -38 128 4 27 28 29 36 32 122 3 83 1 95 -20 126 -25 37 -69 59 -106 53z"/>
 </g>

</svg>
